<?xml version="1.0" standalone="no"?>
<!DOCTYPE svg PUBLIC "-//W3C//DTD SVG 20010904//EN"
 "http://www.w3.org/TR/2001/REC-SVG-20010904/DTD/svg10.dtd">
<svg version="1.0" xmlns="http://www.w3.org/2000/svg"
 width="800.000000pt" height="800.000000pt" viewBox="0 0 800.000000 800.000000"
 preserveAspectRatio="xMidYMid meet">

<g transform="translate(0.000000,800.000000) scale(0.100000,-0.100000)"
fill="#000000" stroke="none">
<path d="M3690 6249 c-515 -107 -960 -466 -1166 -940 -200 -462 -187 -969 37
-1408 296 -579 903 -932 1544 -897 439 25 833 212 1136 541 139 151 252 339
325 543 19 51 34 96 34 99 0 4 -24 -41 -52 -98 -324 -643 -1047 -975 -1741
-800 -453 115 -831 428 -1023 850 -229 500 -172 1080 149 1531 76 106 247 277
354 353 116 82 271 161 409 207 133 44 132 48 -6 19z"/>
<path d="M3777 5331 c-13 -16 -29 -55 -37 -89 -7 -34 -19 -63 -26 -66 -8 -3
-14 -13 -14 -21 0 -11 -6 -15 -17 -11 -61 17 -137 25 -149 15 -8 -6 -24 -9
-37 -5 -38 9 -61 -41 -53 -115 l6 -59 -30 0 c-17 0 -30 -1 -30 -3 0 -1 -4 -16
-9 -34 -8 -27 -7 -31 7 -26 10 4 26 12 37 20 45 30 116 10 164 -47 17 -21 22
-23 30 -11 15 23 198 -13 226 -43 21 -24 118 -51 123 -35 18 49 55 99 94 125
63 43 120 50 194 25 44 -14 61 -16 66 -8 12 19 9 27 -16 38 -19 9 -25 21 -30
63 -11 92 -8 146 9 146 8 0 15 6 15 14 0 9 -26 20 -77 31 -43 9 -112 25 -153
35 l-75 19 -23 -22 c-13 -12 -40 -53 -59 -91 l-34 -68 -46 7 c-25 4 -51 9 -59
12 -36 14 -16 174 26 202 11 7 20 17 20 22 0 17 -19 9 -43 -20z m457 -141 c25
-9 26 -13 26 -85 l0 -75 -27 6 c-58 12 -56 10 -49 81 9 89 9 89 50 73z m-231
-135 c33 -7 62 -16 65 -19 6 -7 -25 -67 -53 -102 -18 -22 -23 -23 -57 -14 -30
9 -38 16 -38 34 0 40 12 116 19 116 3 -1 32 -7 64 -15z"/>
<path d="M4126 4940 c-94 -29 -154 -120 -142 -218 8 -68 26 -102 73 -140 66
-51 155 -59 228 -19 49 27 63 41 88 90 42 83 23 185 -46 243 -60 51 -128 65
-201 44z m143 -95 c61 -52 65 -135 9 -192 -105 -108 -274 20 -204 155 33 65
138 84 195 37z"/>
<path d="M4133 4844 c-33 -17 -63 -66 -63 -106 0 -33 36 -87 66 -98 52 -20 94
-12 130 24 26 26 34 42 34 69 0 53 -16 85 -52 107 -39 24 -72 25 -115 4z m90
-75 c18 -25 11 -56 -15 -70 -42 -23 -90 45 -56 79 19 19 55 14 71 -9z"/>
<path d="M4160 4765 c-6 -8 -9 -23 -5 -35 10 -31 59 -24 63 9 6 37 -34 55 -58
26z"/>
<path d="M3443 4929 c-46 -13 -73 -53 -73 -106 0 -38 5 -50 34 -79 26 -26 42
-34 71 -34 72 0 122 54 117 124 -4 42 -28 75 -67 92 -38 16 -38 16 -82 3z m92
-54 c33 -32 33 -74 0 -105 -35 -33 -81 -31 -113 5 -64 75 44 170 113 100z"/>
<path d="M3440 4870 c-41 -41 -14 -110 43 -110 33 0 70 45 61 74 -8 27 -41 56
-65 56 -10 0 -28 -9 -39 -20z m71 -10 c27 -15 24 -56 -6 -76 -23 -15 -27 -15
-50 0 -29 19 -32 47 -9 70 18 19 38 20 65 6z"/>
<path d="M3451 4842 c-20 -38 31 -71 58 -38 9 11 10 20 1 35 -13 26 -46 27
-59 3z"/>
<path d="M3900 4770 c34 -11 60 -11 35 0 -11 5 -29 8 -40 8 -16 0 -15 -2 5 -8z"/>
<path d="M3858 4713 c7 -3 16 -2 19 1 4 3 -2 6 -13 5 -11 0 -14 -3 -6 -6z"/>
<path d="M3898 4703 c6 -2 18 -2 25 0 6 3 1 5 -13 5 -14 0 -19 -2 -12 -5z"/>
<path d="M2090 2420 l0 -250 45 0 45 0 0 115 0 115 75 0 75 0 0 45 0 45 -75 0
-75 0 0 45 0 45 75 0 75 0 0 45 0 45 -120 0 -120 0 0 -250z"/>
<path d="M4178 2429 c-2 -133 0 -245 3 -250 3 -6 54 -8 115 -7 l109 3 3 43 3
42 -70 0 -71 0 0 205 0 205 -45 0 -44 0 -3 -241z"/>
<path d="M2555 2531 c-48 -22 -69 -44 -90 -94 -20 -49 -19 -113 5 -165 45 -98
134 -134 223 -89 44 23 47 23 47 6 0 -16 8 -19 45 -19 l45 0 0 185 0 185 -45
0 c-37 0 -45 -3 -45 -19 0 -17 -3 -17 -47 5 -56 29 -85 30 -138 5z m123 -72
c103 -36 77 -211 -31 -211 -45 0 -73 16 -92 52 -31 60 -8 137 49 160 29 12 38
12 74 -1z"/>
<path d="M3085 2538 c-11 -6 -26 -18 -32 -26 -11 -14 -13 -13 -13 6 0 19 -6
22 -40 22 l-40 0 0 -185 0 -185 45 0 45 0 0 115 c0 137 14 185 55 185 18 0 28
7 36 27 18 48 -8 68 -56 41z"/>
<path d="M3425 2543 c-11 -3 -32 -14 -47 -25 -28 -19 -28 -19 -28 1 0 18 -6
21 -45 21 l-45 0 0 -185 0 -185 45 0 45 0 0 113 c0 123 10 154 53 175 69 33
97 -18 97 -178 l0 -110 45 0 45 0 0 121 c0 120 0 121 29 150 34 34 63 37 91 9
17 -17 20 -34 21 -127 2 -160 -2 -148 47 -151 l42 -3 0 148 c0 128 -3 152 -19
179 -36 60 -123 68 -194 19 -32 -21 -37 -22 -49 -8 -27 33 -84 48 -133 36z"/>
<path d="M4637 2535 c-106 -37 -155 -157 -108 -261 54 -118 221 -147 306 -53
44 49 55 76 55 140 0 78 -44 141 -122 173 -45 19 -81 20 -131 1z m124 -88 c26
-20 39 -53 39 -97 0 -91 -106 -135 -171 -71 -24 24 -29 38 -29 76 0 38 5 52
29 76 24 23 38 29 73 29 24 0 50 -6 59 -13z"/>
<path d="M5115 2532 c-49 -24 -73 -49 -91 -99 -40 -114 25 -238 138 -258 40
-8 99 8 123 32 13 13 15 12 15 -10 0 -39 -10 -56 -41 -72 -35 -19 -86 -19
-119 0 -28 16 -120 20 -120 5 0 -24 65 -81 105 -93 l44 -12 -30 -17 c-24 -14
-29 -15 -29 -3 0 8 -4 15 -10 15 -6 0 -10 -42 -10 -105 0 -63 4 -105 10 -105
6 0 10 30 10 69 0 58 4 74 23 95 24 27 50 34 83 23 27 -9 34 -33 34 -119 0
-39 4 -68 10 -68 6 0 10 35 10 85 0 72 -3 88 -20 105 -11 11 -20 22 -20 24 0
2 19 8 43 14 50 13 93 55 107 103 6 18 10 116 10 216 l0 183 -45 0 c-39 0 -45
-3 -45 -20 0 -20 0 -20 -29 1 -40 30 -106 34 -156 11z m161 -95 c23 -20 28
-32 28 -76 1 -46 -3 -56 -27 -77 -39 -34 -73 -40 -113 -20 -68 32 -83 131 -27
176 37 29 104 27 139 -3z"/>
<path d="M5656 2535 c-43 -15 -91 -57 -112 -97 -17 -32 -18 -115 -3 -155 26
-70 98 -116 179 -116 84 0 142 38 175 115 43 104 -17 228 -123 258 -48 13 -68
12 -116 -5z m138 -106 c30 -35 34 -84 11 -129 -19 -37 -43 -50 -90 -50 -88 0
-130 116 -67 183 21 22 34 27 73 27 40 0 51 -4 73 -31z"/>
<path d="M4047 2103 c-4 -3 -7 -71 -7 -150 0 -120 2 -143 15 -143 13 0 15 23
15 150 0 137 -4 163 -23 143z"/>
<path d="M3053 2013 c-64 -32 -80 -127 -30 -174 52 -49 115 -48 163 2 84 88
-24 228 -133 172z m112 -39 c44 -48 29 -115 -30 -140 -60 -25 -115 16 -115 84
0 75 94 111 145 56z"/>
<path d="M3626 2013 c-13 -13 -20 -15 -23 -5 -14 37 -23 0 -23 -93 0 -63 4
-105 10 -105 6 0 10 29 10 68 0 77 15 114 49 122 14 3 26 11 29 18 6 18 -31
14 -52 -5z"/>
<path d="M3872 2014 c-41 -29 -27 -79 31 -109 59 -30 41 -81 -25 -71 -46 7
-50 -7 -8 -24 39 -16 77 -1 86 34 9 38 -3 61 -47 85 -30 17 -39 28 -37 44 3
19 9 22 46 20 47 -2 54 8 17 25 -33 15 -36 15 -63 -4z"/>
<path d="M4210 2012 c-105 -58 -55 -223 63 -208 97 11 137 124 68 190 -37 36
-86 42 -131 18z m115 -38 c53 -57 16 -144 -60 -144 -74 0 -111 84 -64 144 29
37 90 37 124 0z"/>
<path d="M4525 2020 c-29 -11 -61 -51 -69 -82 -7 -31 12 -86 37 -106 27 -22
90 -26 125 -8 l32 17 0 -31 c0 -59 -93 -84 -152 -40 -38 28 -51 16 -15 -15 61
-53 154 -38 183 30 20 50 20 235 -1 235 -8 0 -15 -7 -15 -15 0 -12 -6 -11 -32
5 -35 21 -60 24 -93 10z m105 -42 c30 -32 27 -92 -6 -125 -22 -22 -32 -25 -67
-20 -112 15 -100 167 12 167 28 0 46 -6 61 -22z"/>
<path d="M4824 2014 c-39 -19 -69 -81 -60 -121 19 -73 99 -111 161 -74 28 16
35 17 35 6 0 -8 7 -15 15 -15 12 0 15 18 15 105 0 87 -3 105 -15 105 -8 0 -15
-7 -15 -15 0 -12 -6 -11 -32 5 -39 24 -63 25 -104 4z m113 -36 c32 -30 32 -99
1 -128 -56 -52 -148 -11 -148 66 0 74 93 113 147 62z"/>
<path d="M2730 2016 c0 -2 18 -42 40 -89 44 -94 47 -114 24 -158 -15 -31 -14
-46 4 -35 5 3 25 43 45 88 20 46 47 109 61 141 19 43 22 57 12 57 -8 0 -28
-35 -47 -80 -19 -44 -36 -80 -39 -80 -3 0 -21 36 -40 80 -19 44 -40 80 -47 80
-7 0 -13 -2 -13 -4z"/>
<path d="M3301 1935 c5 -104 23 -130 94 -130 70 0 87 24 93 130 4 74 2 85 -12
85 -13 0 -16 -13 -16 -78 0 -64 -4 -82 -18 -95 -23 -21 -76 -22 -96 -2 -16 16
-31 111 -24 150 4 17 1 25 -9 25 -12 0 -14 -15 -12 -85z"/>
</g>
</svg>
