<?xml version="1.0" standalone="no"?>
<!DOCTYPE svg PUBLIC "-//W3C//DTD SVG 20010904//EN"
 "http://www.w3.org/TR/2001/REC-SVG-20010904/DTD/svg10.dtd">
<svg version="1.0" xmlns="http://www.w3.org/2000/svg"
 width="200.000000pt" height="200.000000pt" viewBox="0 0 200.000000 200.000000"
 preserveAspectRatio="xMidYMid meet">

<g transform="translate(0.000000,200.000000) scale(0.100000,-0.100000)"
fill="#000000" stroke="none">
<path d="M895 1934 c-128 -13 -286 -70 -400 -142 -90 -57 -230 -197 -287 -287
-51 -79 -97 -187 -124 -290 -26 -95 -26 -331 0 -425 24 -91 65 -198 83 -215 8
-8 11 -15 8 -15 -8 0 33 -69 52 -88 7 -7 13 -17 13 -22 0 -4 37 -45 83 -92 82
-83 187 -162 198 -150 3 4 28 174 54 377 26 204 63 485 81 625 18 140 33 261
34 268 0 9 -46 12 -199 12 -110 0 -206 3 -214 6 -12 4 9 35 80 120 l95 114
487 0 c268 0 490 -3 494 -6 3 -3 -5 -27 -18 -52 -12 -26 -33 -69 -44 -97 -12
-27 -25 -57 -30 -65 -7 -12 -41 -15 -193 -18 l-185 -2 -6 -63 c-4 -52 -56
-458 -87 -687 -12 -90 -57 -435 -72 -548 -8 -66 -8 -96 -1 -103 17 -17 263
-24 346 -10 133 23 332 106 392 162 20 19 15 20 -300 19 l-320 -1 -3 24 c-2
13 7 95 18 183 12 87 28 209 36 269 7 61 29 233 49 384 19 150 35 277 35 282
0 5 61 9 135 9 l135 0 -5 -37 c-22 -144 -112 -869 -109 -872 2 -2 50 -3 106
-3 l103 0 9 50 9 51 106 46 c58 26 112 50 120 53 16 6 14 -16 -14 -228 -20
-151 -20 -156 2 -139 9 8 45 49 79 92 199 246 256 573 153 879 -99 295 -353
531 -654 608 -79 20 -248 32 -330 24z"/>
</g>
</svg>
